<?xml version="1.0" standalone="no"?>
<!DOCTYPE svg PUBLIC "-//W3C//DTD SVG 20010904//EN"
 "http://www.w3.org/TR/2001/REC-SVG-20010904/DTD/svg10.dtd">
<svg version="1.0" xmlns="http://www.w3.org/2000/svg"
 width="700.000000pt" height="700.000000pt" viewBox="0 0 700.000000 700.000000"
 preserveAspectRatio="xMidYMid meet">
<metadata>
Created by potrace 1.14, written by Peter Selinger 2001-2017
</metadata>
<g transform="translate(0.000000,700.000000) scale(0.100000,-0.100000)"
fill="#000000" stroke="none">
<path d="M3275 6914 c-16 -2 -79 -9 -140 -15 -650 -64 -1307 -345 -1825 -780
-366 -308 -662 -683 -873 -1109 -255 -512 -370 -1040 -354 -1625 14 -513 122
-950 347 -1410 530 -1085 1572 -1801 2785 -1915 142 -13 458 -13 605 0 1559
142 2825 1313 3085 2854 73 435 57 939 -44 1361 -196 816 -672 1523 -1352
2009 -459 328 -975 530 -1560 611 -108 15 -601 29 -674 19z m2055 -1459 c0
-313 0 -315 21 -315 92 0 374 -83 530 -156 l99 -47 0 -309 c0 -169 -2 -308 -4
-308 -2 0 -44 25 -92 56 -241 151 -463 217 -724 217 -253 0 -425 -63 -576
-210 -177 -172 -260 -393 -271 -721 -13 -392 73 -652 280 -849 155 -147 317
-205 572 -204 150 0 272 19 399 62 99 33 249 107 341 168 33 22 63 41 68 41 4
0 6 -138 5 -307 l-3 -308 -85 -42 c-115 -57 -303 -118 -444 -145 l-116 -23 0
-302 0 -303 -350 0 -350 0 -2 321 -3 322 -100 32 c-227 74 -401 179 -560 339
-286 287 -417 644 -417 1136 0 492 131 849 417 1136 159 159 332 265 558 339
l102 33 3 331 2 331 350 0 350 0 0 -315z m-2640 -685 c230 -66 432 -252 555
-513 97 -205 130 -392 122 -697 -5 -213 -19 -304 -67 -450 -92 -276 -273 -498
-491 -600 -107 -50 -206 -70 -343 -70 -178 0 -298 31 -433 111 -58 34 -198
165 -246 229 l-27 35 0 -587 0 -588 -345 0 -345 0 2 1553 3 1552 340 0 340 0
5 -158 5 -157 51 60 c147 169 316 269 509 300 94 14 278 4 365 -20z"/>
<path d="M2130 4269 c-167 -28 -284 -152 -342 -364 -19 -70 -22 -106 -22 -285
-1 -183 2 -214 22 -288 68 -249 207 -371 422 -372 320 0 485 282 449 769 -10
137 -28 212 -74 308 -63 134 -161 211 -296 232 -72 12 -83 12 -159 0z"/>
</g>
</svg>
