<?xml version="1.0" encoding="UTF-8" standalone="no"?>
<svg
   xmlns:dc="http://purl.org/dc/elements/1.1/"
   xmlns:cc="http://creativecommons.org/ns#"
   xmlns:rdf="http://www.w3.org/1999/02/22-rdf-syntax-ns#"
   xmlns:svg="http://www.w3.org/2000/svg"
   xmlns="http://www.w3.org/2000/svg"
   xmlns:sodipodi="http://sodipodi.sourceforge.net/DTD/sodipodi-0.dtd"
   xmlns:inkscape="http://www.inkscape.org/namespaces/inkscape"
   version="1.1"
   id="svg1430"
   width="256"
   height="256"
   viewBox="0 0 256 256"
   sodipodi:docname="butn-UP.svg"
   inkscape:version="1.0.2 (e86c8708, 2021-01-15)">
  <metadata
     id="metadata1436">
    <rdf:RDF>
      <cc:Work
         rdf:about="">
        <dc:format>image/svg+xml</dc:format>
        <dc:type
           rdf:resource="http://purl.org/dc/dcmitype/StillImage" />
        <dc:title />
      </cc:Work>
    </rdf:RDF>
  </metadata>
  <defs
     id="defs1434" />
  <sodipodi:namedview
     pagecolor="#ffffff"
     bordercolor="#666666"
     borderopacity="1"
     objecttolerance="10"
     gridtolerance="10"
     guidetolerance="10"
     inkscape:pageopacity="0"
     inkscape:pageshadow="2"
     inkscape:window-width="733"
     inkscape:window-height="804"
     id="namedview1432"
     showgrid="false"
     inkscape:zoom="2.2050209"
     inkscape:cx="140"
     inkscape:cy="129.73888"
     inkscape:window-x="1715"
     inkscape:window-y="33"
     inkscape:window-maximized="0"
     inkscape:current-layer="g1438"
     inkscape:document-rotation="0" />
  <g
     inkscape:groupmode="layer"
     inkscape:label="Image"
     id="g1438">
    <path
       style="fill:#000000;stroke-width:1.19795"
       d="M 40.983944,204.14235 C 16.771422,199.98676 -1.1285749,176.16018 0.94401079,150.84544 2.66308,129.84846 18.270618,111.32168 38.66544,106.06857 l 5.5257,-1.42326 -0.656034,-6.508933 C 42.043901,83.341484 48.528246,65.57197 59.569985,54.19477 81.960563,31.123988 116.9872,31.205903 139.26533,54.381151 c 3.3001,3.432985 7.31069,8.89 8.91243,12.126712 2.16186,4.368563 3.4256,5.71259 4.90456,5.216132 1.09578,-0.36784 4.92232,-1.767849 8.50341,-3.111137 17.56282,-6.58792 37.1184,0.13114 48.06818,16.515652 5.52307,8.26436 8.3683,19.78945 7.07151,28.64448 l -0.76902,5.25121 6.47412,1.4836 c 20.00088,4.58337 34.5513,25.44538 32.17672,46.13411 -1.544,13.45223 -10.23086,26.72979 -21.65275,33.09549 -8.95224,4.98931 -17.7826,5.88582 -54.20316,5.50307 l -33.14736,-0.34836 -0.32189,-22.67791 -0.3219,-22.6779 8.88801,-0.35453 8.88803,-0.35453 -16.54387,-24.17061 c -9.09913,-13.29384 -17.02191,-24.66012 -17.60619,-25.25843 -0.62722,-0.64227 -8.17511,9.25755 -18.4283,24.17061 l -17.365956,25.25843 8.648526,0.60611 8.64852,0.60612 v 22.42632 22.42632 l -31.371608,0.17106 c -17.254382,0.0941 -34.234411,-0.32028 -37.733398,-0.92082 z"
       id="path2003" />
  </g>
</svg>
