<?xml version="1.0" encoding="UTF-8" standalone="no"?>
<svg
   xmlns:dc="http://purl.org/dc/elements/1.1/"
   xmlns:cc="http://creativecommons.org/ns#"
   xmlns:rdf="http://www.w3.org/1999/02/22-rdf-syntax-ns#"
   xmlns:svg="http://www.w3.org/2000/svg"
   xmlns="http://www.w3.org/2000/svg"
   xmlns:sodipodi="http://sodipodi.sourceforge.net/DTD/sodipodi-0.dtd"
   xmlns:inkscape="http://www.inkscape.org/namespaces/inkscape"
   version="1.1"
   id="svg830"
   width="256"
   height="256"
   viewBox="0 0 256 256"
   sodipodi:docname="butn-DWN.svg"
   inkscape:version="1.0.2 (e86c8708, 2021-01-15)">
  <sodipodi:namedview
     pagecolor="#ffffff"
     bordercolor="#666666"
     borderopacity="1"
     objecttolerance="10"
     gridtolerance="10"
     guidetolerance="10"
     inkscape:pageopacity="0"
     inkscape:pageshadow="2"
     inkscape:window-width="732"
     inkscape:window-height="780"
     id="namedview867"
     showgrid="false"
     inkscape:zoom="2.0585938"
     inkscape:cx="128.64367"
     inkscape:cy="128"
     inkscape:window-x="1298"
     inkscape:window-y="37"
     inkscape:window-maximized="0"
     inkscape:current-layer="svg830"
     inkscape:document-rotation="0" />
  <metadata
     id="metadata836">
    <rdf:RDF>
      <cc:Work
         rdf:about="">
        <dc:format>image/svg+xml</dc:format>
        <dc:type
           rdf:resource="http://purl.org/dc/dcmitype/StillImage" />
        <dc:title />
      </cc:Work>
    </rdf:RDF>
  </metadata>
  <defs
     id="defs834" />
  <g
     id="g838"
     transform="matrix(1.1889047,0,0,1.2813004,-33.697052,-18.944462)">
    <path
       style="fill:#000000;stroke-width:0.99631"
       d="M 62.779699,178.72098 C 50.988067,176.75569 38.572436,167.4318 33.356307,156.6246 21.878461,132.84388 35.378243,104.63799 61.362343,98.109958 l 4.492708,-1.128711 -0.451885,-6.152529 C 64.553131,79.255276 70.244224,64.577747 79.049141,55.635269 101.18123,33.1574 138.33529,38.063538 153.86092,65.514054 l 3.08334,5.451571 5.25857,-2.59222 c 4.49081,-2.21375 6.57148,-2.592218 14.25098,-2.592218 8.15487,0 9.611,0.305398 15.63403,3.278961 7.59592,3.750095 12.67313,9.042771 16.44213,17.13985 2.1237,4.562424 2.54487,6.92433 2.5194,14.128772 l -0.0306,8.65055 3.48369,0.63121 c 10.48022,1.8989 20.96144,10.17636 25.60267,20.21949 2.19893,4.75828 2.61195,7.04024 2.55932,14.14028 -0.0536,7.21526 -0.49244,9.38393 -2.97046,14.67595 -4.95555,10.583 -14.54409,17.95687 -26.13003,20.09476 -6.11623,1.12861 -75.45479,1.58328 -76.52939,0.50183 -0.31965,-0.32168 5.94884,-9.75332 13.92996,-20.9592 7.98114,-11.20588 14.51242,-20.55972 14.51398,-20.78633 0.002,-0.22661 -3.24761,-0.54371 -7.22038,-0.70466 l -7.2232,-0.29265 -0.1468,-18.17772 -0.14679,-18.17773 h -14.42795 -14.42794 l -0.12625,18.38485 -0.12625,18.38482 -7.53425,0.29092 -7.53426,0.2909 14.23969,20.41881 c 7.83183,11.23035 14.04447,20.75498 13.80587,21.16584 -0.60291,1.03822 -65.389451,0.71379 -71.830301,-0.35971 z"
       id="path842" />
  </g>
</svg>
