<?xml version="1.0" encoding="UTF-8" standalone="no"?>
<svg
   xmlns:dc="http://purl.org/dc/elements/1.1/"
   xmlns:cc="http://creativecommons.org/ns#"
   xmlns:rdf="http://www.w3.org/1999/02/22-rdf-syntax-ns#"
   xmlns:svg="http://www.w3.org/2000/svg"
   xmlns="http://www.w3.org/2000/svg"
   xmlns:sodipodi="http://sodipodi.sourceforge.net/DTD/sodipodi-0.dtd"
   xmlns:inkscape="http://www.inkscape.org/namespaces/inkscape"
   width="512"
   height="512"
   viewBox="0 0 135.46667 135.46667"
   version="1.1"
   id="svg8"
   inkscape:version="1.0.2 (e86c8708, 2021-01-15)"
   sodipodi:docname="calculator.svg">
  <defs
     id="defs2" />
  <sodipodi:namedview
     id="base"
     pagecolor="#ffffff"
     bordercolor="#666666"
     borderopacity="1.0"
     inkscape:pageopacity="0.0"
     inkscape:pageshadow="2"
     inkscape:zoom="0.98994949"
     inkscape:cx="163.39591"
     inkscape:cy="235.55542"
     inkscape:document-units="px"
     inkscape:current-layer="layer1"
     inkscape:document-rotation="0"
     showgrid="false"
     units="px"
     width="512px"
     inkscape:window-width="1252"
     inkscape:window-height="975"
     inkscape:window-x="1283"
     inkscape:window-y="24"
     inkscape:window-maximized="0" />
  <metadata
     id="metadata5">
    <rdf:RDF>
      <cc:Work
         rdf:about="">
        <dc:format>image/svg+xml</dc:format>
        <dc:type
           rdf:resource="http://purl.org/dc/dcmitype/StillImage" />
        <dc:title></dc:title>
        <cc:license
           rdf:resource="http://creativecommons.org/licenses/by/4.0/" />
      </cc:Work>
      <cc:License
         rdf:about="http://creativecommons.org/licenses/by/4.0/">
        <cc:permits
           rdf:resource="http://creativecommons.org/ns#Reproduction" />
        <cc:permits
           rdf:resource="http://creativecommons.org/ns#Distribution" />
        <cc:requires
           rdf:resource="http://creativecommons.org/ns#Notice" />
        <cc:requires
           rdf:resource="http://creativecommons.org/ns#Attribution" />
        <cc:permits
           rdf:resource="http://creativecommons.org/ns#DerivativeWorks" />
      </cc:License>
    </rdf:RDF>
  </metadata>
  <g
     inkscape:label="Layer 1"
     inkscape:groupmode="layer"
     id="layer1">
    <path
       style="fill:#000000;stroke-width:0.13766"
       d="m 20.358237,135.22392 c -1.120949,-0.10008 -3.549874,-0.61372 -4.7845,-1.01176 -1.94776,-0.62797 -4.646557,-2.03143 -6.2972959,-3.27479 C 4.2159522,127.12572 1.1275151,121.6822 0.4608265,115.39941 0.36390284,114.48601 0.33056606,98.86218 0.35748757,66.971466 L 0.39723572,19.891953 0.71325799,18.405304 C 1.7155542,13.690233 3.816235,9.8257056 7.0928885,6.668969 10.76206,3.1340819 15.028935,1.1353531 20.158058,0.54886021 21.073604,0.44417161 35.481628,0.41315064 68.746462,0.44424848 l 47.286918,0.0442064 1.37663,0.31440647 c 4.47251,1.02148065 8.13468,2.98032985 11.194,5.98754315 3.24102,3.1858115 5.30505,7.0644295 6.31829,11.8729725 0.21157,1.004068 0.23389,4.844422 0.28027,48.239259 0.0376,35.135794 0.0101,47.531234 -0.10938,48.651124 -0.54685,5.14328 -2.64808,9.49883 -6.3855,13.23617 -3.72883,3.72875 -7.99028,5.7856 -13.23053,6.38588 -1.14158,0.13077 -93.668801,0.17757 -95.118923,0.0481 z m 10.900084,-13.12928 c 0.212771,-0.0809 2.123104,-1.87638 4.245183,-3.98995 l 3.858322,-3.84288 3.782598,3.79256 c 2.080428,2.08591 3.963087,3.88822 4.183684,4.00513 0.27412,0.14528 0.636899,0.19302 1.146,0.1508 l 0.744913,-0.0618 1.857629,-1.84622 c 1.021695,-1.01543 1.946286,-2.0135 2.054643,-2.21795 0.26031,-0.49116 0.249801,-1.25781 -0.02471,-1.80325 -0.121955,-0.24231 -1.913861,-2.14409 -3.98202,-4.2262 l -3.760281,-3.78563 3.716244,-3.78563 c 2.043939,-2.08209 3.835618,-3.97147 3.981506,-4.19861 0.293436,-0.45685 0.344353,-1.222175 0.120482,-1.810983 -0.174785,-0.459713 -3.336128,-3.7002 -3.896161,-3.993701 -0.472248,-0.247494 -1.453078,-0.269599 -1.899532,-0.04281 -0.177169,0.09 -2.057082,1.891629 -4.177578,4.003621 L 39.353791,102.2811 35.569,98.486347 c -2.081636,-2.087111 -3.962056,-3.88874 -4.178712,-4.003615 -0.503525,-0.266982 -1.458638,-0.268063 -1.965404,-0.0024 -0.216656,0.113651 -1.207684,1.03253 -2.202287,2.041948 -1.575105,1.598569 -1.820446,1.908521 -1.902001,2.402885 -0.171546,1.039855 0.07378,1.360775 4.197156,5.490335 l 3.849584,3.85536 -3.926271,3.92239 c -4.20519,4.20103 -4.32052,4.35456 -4.111377,5.4731 0.07779,0.41609 0.426921,0.85253 1.829878,2.28756 0.953556,0.97535 1.919582,1.88884 2.146724,2.02996 0.459733,0.28564 1.357755,0.33648 1.952047,0.11054 z m 57.008574,-0.0502 c 0.204453,-0.10852 5.212386,-5.04877 11.12874,-10.97834 9.552875,-9.57422 10.767055,-10.8386 10.846755,-11.295225 0.17881,-1.024627 -0.0585,-1.419693 -2.01808,-3.359826 -1.005,-0.995018 -1.96259,-1.877756 -2.12796,-1.961645 -0.38026,-0.192887 -1.2846,-0.196582 -1.78969,-0.0073 -0.51243,0.192008 -21.458449,21.107016 -21.803855,21.771566 -0.638451,1.22834 -0.258733,2.01122 2.022418,4.16968 0.960196,0.90856 1.844886,1.69401 1.965972,1.74548 0.390836,0.1661 1.393526,0.11847 1.7757,-0.0843 z m 21.852975,-0.28139 c 4.00022,-1.9571 3.97424,-7.57266 -0.0439,-9.47606 -0.83849,-0.39721 -1.049,-0.43854 -2.23353,-0.43854 -1.17621,0 -1.39782,0.0427 -2.20259,0.4249 -1.81913,0.86381 -2.89141,2.43876 -2.99956,4.40575 -0.10776,1.95986 0.64642,3.56903 2.1723,4.63504 1.05883,0.73972 1.7595,0.93112 3.24405,0.88615 1.04988,-0.0319 1.37556,-0.10083 2.06318,-0.43724 z M 86.101308,104.54033 c 1.540683,-0.45051 2.618916,-1.39777 3.347662,-2.94101 0.376296,-0.79687 0.424337,-1.03687 0.414624,-2.071408 -0.0069,-0.73606 -0.09712,-1.399891 -0.243183,-1.789572 -0.553173,-1.475775 -1.789947,-2.710813 -3.253209,-3.248638 -0.385974,-0.141863 -1.034599,-0.227183 -1.720776,-0.226349 -1.488299,0.002 -2.438075,0.370615 -3.509898,1.36291 -1.789411,1.656649 -2.250269,4.111301 -1.171543,6.240017 1.141356,2.25232 3.726296,3.37877 6.136323,2.67405 z M 42.530231,85.481465 c 0.249638,-0.154283 0.582174,-0.545518 0.738978,-0.869419 0.273664,-0.565306 0.285089,-0.807872 0.285089,-6.051823 v -5.462914 h 5.520093 c 6.101024,0 6.147422,-0.006 6.768958,-0.877341 0.293822,-0.411903 0.30703,-0.552881 0.30703,-3.276761 0,-3.129666 -0.01577,-3.194422 -0.947649,-3.890465 -0.367164,-0.274244 -0.570034,-0.285135 -6.009792,-0.322658 l -5.629801,-0.03883 -0.03883,-5.629691 c -0.03755,-5.439653 -0.04842,-5.642522 -0.322665,-6.009676 -0.682883,-0.914221 -0.793417,-0.943854 -3.683597,-0.98755 -2.521735,-0.03812 -2.668039,-0.02575 -3.256682,0.275321 -0.364265,0.186312 -0.730218,0.512282 -0.894802,0.797043 -0.264926,0.458366 -0.280435,0.751378 -0.318757,6.022599 l -0.04028,5.540792 h -5.388331 c -5.107047,0 -5.418014,0.01436 -5.957092,0.275328 -0.362489,0.175476 -0.677815,0.469348 -0.869436,0.810287 -0.280404,0.498898 -0.300632,0.714598 -0.300151,3.200568 5.45e-4,2.976611 0.07856,3.27694 0.996276,3.836463 0.428011,0.260957 0.703408,0.273573 5.983692,0.27406 l 5.535034,3.91e-4 0.04028,5.540792 c 0.03855,5.302527 0.05244,5.561489 0.32305,6.022131 0.155521,0.264734 0.489908,0.620931 0.743083,0.791541 0.439429,0.296123 0.585157,0.310202 3.211369,0.310202 2.527749,0 2.787891,-0.02279 3.20493,-0.280511 z M 112.11663,72.787107 c 0.93962,-0.633198 1.02585,-0.960047 1.02585,-3.888408 0,-2.522803 -0.0117,-2.634408 -0.33102,-3.148006 -0.204,-0.328171 -0.54732,-0.630721 -0.8948,-0.78852 -0.53855,-0.244576 -1.24078,-0.256177 -15.685813,-0.259064 -16.832408,-0.0035 -15.678806,-0.06891 -16.444779,0.93439 -0.36862,0.482837 -0.371044,0.501135 -0.412583,3.11238 -0.04019,2.526462 -0.02954,2.64977 0.278756,3.231655 0.640898,1.209599 -0.758219,1.115775 16.638544,1.115775 h 15.365525 z m 3.71026,-31.639188 c 1.09684,-0.516532 1.58507,-0.988119 2.09491,-2.023424 l 0.45183,-0.917557 0.0418,-8.744513 c 0.0288,-5.999632 -0.006,-9.025388 -0.11199,-9.639302 -0.18742,-1.090065 -0.6177,-1.859329 -1.4496,-2.591576 -1.23214,-1.084554 3.58697,-0.987569 -49.071066,-0.987569 -53.108927,0 -47.852881,-0.118911 -49.200938,1.113113 -0.448973,0.410328 -0.861465,0.952708 -1.061993,1.396403 l -0.327883,0.725481 v 9.360838 9.360839 l 0.313869,0.680719 c 0.629382,1.364998 1.514713,2.126487 2.911463,2.504212 0.49469,0.133779 10.679655,0.164676 47.640808,0.144525 l 47.0116,-0.02564 z"
       id="path844" />
  </g>
</svg>
