<?xml version="1.0" encoding="UTF-8" standalone="no"?>
<svg
   xmlns:dc="http://purl.org/dc/elements/1.1/"
   xmlns:cc="http://creativecommons.org/ns#"
   xmlns:rdf="http://www.w3.org/1999/02/22-rdf-syntax-ns#"
   xmlns:svg="http://www.w3.org/2000/svg"
   xmlns="http://www.w3.org/2000/svg"
   xmlns:sodipodi="http://sodipodi.sourceforge.net/DTD/sodipodi-0.dtd"
   xmlns:inkscape="http://www.inkscape.org/namespaces/inkscape"
   width="512"
   height="512"
   viewBox="0 0 135.46667 135.46667"
   version="1.1"
   id="svg8"
   inkscape:version="1.0.2 (e86c8708, 2021-01-15)"
   sodipodi:docname="debug.svg">
  <defs
     id="defs2" />
  <sodipodi:namedview
     id="base"
     pagecolor="#ffffff"
     bordercolor="#666666"
     borderopacity="1.0"
     inkscape:pageopacity="0.0"
     inkscape:pageshadow="2"
     inkscape:zoom="0.98994949"
     inkscape:cx="256.86699"
     inkscape:cy="263.71264"
     inkscape:document-units="px"
     inkscape:current-layer="layer1"
     inkscape:document-rotation="0"
     showgrid="false"
     units="px"
     width="512px"
     inkscape:window-width="1252"
     inkscape:window-height="755"
     inkscape:window-x="0"
     inkscape:window-y="508"
     inkscape:window-maximized="0" />
  <metadata
     id="metadata5">
    <rdf:RDF>
      <cc:Work
         rdf:about="">
        <dc:format>image/svg+xml</dc:format>
        <dc:type
           rdf:resource="http://purl.org/dc/dcmitype/StillImage" />
        <dc:title></dc:title>
        <cc:license
           rdf:resource="http://creativecommons.org/licenses/by/4.0/" />
      </cc:Work>
      <cc:License
         rdf:about="http://creativecommons.org/licenses/by/4.0/">
        <cc:permits
           rdf:resource="http://creativecommons.org/ns#Reproduction" />
        <cc:permits
           rdf:resource="http://creativecommons.org/ns#Distribution" />
        <cc:requires
           rdf:resource="http://creativecommons.org/ns#Notice" />
        <cc:requires
           rdf:resource="http://creativecommons.org/ns#Attribution" />
        <cc:permits
           rdf:resource="http://creativecommons.org/ns#DerivativeWorks" />
      </cc:License>
    </rdf:RDF>
  </metadata>
  <g
     inkscape:label="Layer 1"
     inkscape:groupmode="layer"
     id="layer1">
    <path
       d="m 67.718655,1.0386704 c -36.762098,0 -66.6053828,29.6988496 -66.6053828,66.2830106 0,36.584169 29.8432848,66.283009 66.6053828,66.283009 36.762085,0 66.605385,-29.69884 66.605385,-66.283009 0,-36.584161 -29.8433,-66.2830106 -66.605385,-66.2830106 z m 0,3.7872625 c 16.659162,0 31.765665,6.4717241 42.994455,16.9857011 L 88.591287,43.885567 c -1.104426,-0.665805 -2.378765,-1.062083 -3.747233,-1.124174 v -4.319557 c 0,-9.20759 -7.855697,-16.570752 -17.12642,-16.570752 -9.270721,0 -17.126419,7.363162 -17.126419,16.570752 v 4.319557 c -4.226723,0.191547 -7.612723,3.619528 -7.612723,7.870432 v 6.273554 L 29.657759,49.152293 v -12.13216 c 0.02119,-0.556132 -0.203107,-1.093803 -0.615929,-1.470297 -0.411495,-0.375177 -0.97037,-0.552179 -1.525238,-0.482176 -0.979634,0.122855 -1.703086,0.970945 -1.664584,1.952443 v 13.257614 c 0.01465,0.660497 0.375669,1.266852 0.951777,1.59712 l 16.174911,9.40948 v 7.931302 H 20.142905 c -0.118148,-0.01193 -0.237613,-0.01193 -0.357088,0 -1.051342,0.09773 -1.822571,1.025086 -1.724327,2.071343 0.09823,1.044907 1.030073,1.813756 2.081415,1.715994 h 22.835791 v 7.811245 l -16.174911,9.351312 c -0.576108,0.330257 -0.937164,0.93659 -0.951777,1.59712 v 13.434817 c 0.0038,0.31044 0.08631,0.61559 0.237612,0.88772 l -4.103029,4.08317 C 11.404144,98.98984 4.9182816,83.915874 4.9182816,67.321114 4.9182816,32.782924 33.012156,4.8256961 67.717641,4.8256961 Z M 113.44868,24.474789 c 10.58244,11.178495 17.06831,26.252469 17.06831,42.847234 0,34.538187 -28.09387,62.495407 -62.799356,62.495407 -16.675133,0 -31.82276,-6.45447 -43.055622,-16.98569 L 45.119039,92.473723 c 3.848161,8.618137 12.503122,14.618447 22.598256,14.618447 12.776679,0 23.298971,-9.591754 24.619865,-21.956586 l 13.44035,7.753077 v 12.309029 c -0.007,0.50727 0.18982,0.99604 0.54824,1.35667 0.35708,0.36063 0.84559,0.56408 1.35532,0.56408 0.50841,0 0.9969,-0.20343 1.35532,-0.56408 0.35708,-0.36063 0.55486,-0.8494 0.54691,-1.35667 V 91.762869 c -0.0146,-0.660492 -0.37568,-1.266855 -0.95179,-1.59712 L 92.456608,80.814437 v -5.918121 h 22.835782 c 0.50975,0.0077 1.00089,-0.18891 1.36328,-0.544269 0.36239,-0.35668 0.56683,-0.841488 0.56683,-1.348758 0,-0.50727 -0.20443,-0.9934 -0.56683,-1.348758 -0.36239,-0.35668 -0.85353,-0.552175 -1.36328,-0.545581 H 92.456608 v -9.824429 l 16.174902,-9.409485 c 0.57611,-0.330248 0.93717,-0.936583 0.95179,-1.597115 V 37.020302 c 0.0226,-0.556132 -0.2031,-1.093804 -0.61593,-1.470297 -0.41149,-0.375176 -0.97037,-0.55218 -1.52522,-0.482175 -0.97965,0.122853 -1.7031,0.970945 -1.6646,1.952441 v 12.13216 L 92.456811,56.905513 V 50.63196 c 0,-1.512572 -0.44867,-2.878475 -1.189382,-4.083167 z m -45.730025,1.183625 c 7.245034,0 13.320736,5.728069 13.320736,12.783492 V 42.70228 H 54.397917 v -4.260374 c 0,-7.055423 6.075702,-12.783492 13.320738,-12.783492 z M 50.94769,46.489542 h 33.541589 c 0.420803,0 0.809731,0.128141 1.18938,0.237779 L 46.962582,85.252638 C 46.845766,84.358322 46.783379,83.400562 46.783379,82.471887 V 50.631696 c 0,-2.34084 1.810613,-4.142686 4.162836,-4.142686 z m 37.526696,2.84148 c 0.135401,0.41613 0.179204,0.832225 0.179204,1.301209 v 31.840196 c 0,11.573489 -9.304024,20.831133 -20.933801,20.831133 -9.130036,0 -16.79747,-5.676337 -19.68461,-13.729382 z M 43.101168,85.137374 c 0.123452,1.159859 0.37435,2.266847 0.654431,3.372556 l -14.094854,14.02664 v -9.645874 z"
       id="path66"
       style="stroke-width:0.339" />
  </g>
</svg>
