<?xml version="1.0" standalone="no"?>
<!DOCTYPE svg PUBLIC "-//W3C//DTD SVG 20010904//EN"
 "http://www.w3.org/TR/2001/REC-SVG-20010904/DTD/svg10.dtd">
<svg version="1.0" xmlns="http://www.w3.org/2000/svg"
 width="512.000000pt" height="512.000000pt" viewBox="0 0 512.000000 512.000000"
 preserveAspectRatio="xMidYMid meet">
<metadata>
Created by potrace 1.14, written by Peter Selinger 2001-2017
</metadata>
<g transform="translate(0.000000,512.000000) scale(0.100000,-0.100000)"
fill="#000000" stroke="none">
<path d="M2335 5053 c-174 -16 -414 -69 -586 -129 -880 -306 -1516 -1069
-1664 -1999 -25 -155 -31 -491 -11 -659 54 -463 234 -902 524 -1275 88 -114
284 -310 402 -403 746 -591 1734 -717 2602 -333 403 179 770 484 1032 859 466
665 577 1520 299 2297 -76 215 -234 496 -388 694 -400 513 -1026 863 -1681
940 -117 14 -419 18 -529 8z m1565 -1016 l0 -182 78 -17 c42 -8 118 -31 167
-49 l90 -34 3 -347 c1 -192 -1 -348 -6 -348 -4 0 -24 20 -45 44 -20 24 -71 67
-112 95 -320 214 -743 68 -872 -301 -20 -57 -27 -99 -30 -188 -9 -213 43 -357
176 -490 121 -120 238 -170 399 -170 156 0 290 54 411 166 38 35 72 64 75 64
3 0 5 -156 4 -347 l-3 -346 -70 -24 c-66 -22 -176 -54 -237 -67 l-28 -6 0
-215 0 -215 -260 0 -260 0 0 234 0 234 -37 12 c-128 41 -326 171 -427 281
-402 433 -450 1091 -115 1569 125 179 328 335 542 415 l47 18 0 198 0 199 255
0 255 0 0 -183z m-2035 -642 c82 -21 209 -86 282 -145 201 -162 317 -473 284
-757 -35 -295 -196 -536 -433 -648 -40 -19 -100 -41 -133 -50 -76 -19 -241
-19 -324 0 -82 20 -189 76 -252 133 l-49 44 0 -461 0 -461 -260 0 -260 0 0
1160 0 1160 260 0 260 0 0 -83 0 -82 65 62 c141 135 347 182 560 128z"/>
<path d="M1479 2937 c-104 -29 -196 -119 -234 -226 -22 -63 -19 -178 6 -245
27 -74 95 -148 171 -185 52 -26 72 -31 137 -31 63 0 86 5 136 28 188 90 254
344 136 523 -72 108 -232 170 -352 136z"/>
</g>
</svg>
